<svg xmlns="http://www.w3.org/2000/svg" viewBox="0 0 72 72" width="64px" height="64px">
  <path d="M 19 13 C 14.037 13 10 17.038 10 22 L 10 49 C 10 49.217 10.017203 49.431531 10.033203 49.644531 L 15.496094 35.582031 C 17.286094 30.976031 21.636125 28 26.578125 28 L 59.988281 28 C 60.673281 28 61.343 28.086703 62 28.220703 L 62 26 C 62 21.038 57.963 17 53 17 L 32.753906 17 C 32.526906 17 32.307813 16.923203 32.132812 16.783203 L 29.869141 14.974609 C 28.280141 13.701609 26.283094 13 24.246094 13 L 19 13 z M 26.578125 32 C 23.299125 32 20.412609 33.97525 19.224609 37.03125 L 12.263672 54.947266 C 13.914672 56.814266 16.318 58 19 58 L 53.1875 58 C 56.5105 58 59.437531 55.998438 60.644531 52.898438 L 65.591797 40.173828 C 66.308797 38.326828 66.070172 36.247328 64.951172 34.611328 C 64.770172 34.346328 62.886281 32 59.988281 32 L 26.578125 32 z" fill="#C81B1B" />
</svg>